# xmcd
#
# Track frame offsets:
#	150
#	17595
#	32831
#	47420
#	60749
#	74755
#	88475
#	99902
#	115843
#	133861
#	153435
#	170500
#	186953
#	216907
#	232914
#	249279
#	267560
#	293678
#
# Disc length: 4170
#
# Revision: 1
# Processed by: cddbd v1.5.1PL0 Copyright (c) Steve Scherf et al.
# Submitted via: OrangeCD 5.2
# Normalized: r0:DSETVAR1
#
DISCID=05104812
DTITLE=Various Artist - The Motown Collection 1974-1984 Disc 3
DYEAR=2001
DGENRE=Motown Compilation
TTITLE0=Marvin Gaye - What's Going On
TTITLE1=Michael Jackson - Got To Be There
TTITLE2=The Undisputed Truth - Smiling Faces Sometimes
TTITLE3=The Jackson 5 - Never Can Say Goodbye
TTITLE4=Smokey Robinson and The Miracles - I Don't Blame You At All
TTITLE5=Jermaine Jackson - Daddy's Home
TTITLE6=Michael Jackson - Rockin' Robin
TTITLE7=Eddie Kendricks - Keep On Trucking
TTITLE8=Marvin Gaye - Let's Get It On
TTITLE9=Gladys Knight and The Pips - Neither One Of Us (Wants To Be The First To Say Goodbye)
TTITLE10=Eddie Kendricks - Boogie Down
TTITLE11=Thelma Houston - Don't Leave Me This Way
TTITLE12=The Commodores - Three Times A Lady
TTITLE13=Bonnie Pointer - Heaven Must Of Sent You (Into My Life)
TTITLE14=Billy Preston and Syreeta - With You I'm Born Again
TTITLE15=Smokey Robinson - Being With You
TTITLE16=The Commodores - Still
TTITLE17=The Temptations - Treat Her Like A Lady
EXTD=
EXTT0=
EXTT1=
EXTT2=
EXTT3=
EXTT4=
EXTT5=
EXTT6=
EXTT7=
EXTT8=
EXTT9=
EXTT10=
EXTT11=
EXTT12=
EXTT13=
EXTT14=
EXTT15=
EXTT16=
EXTT17=
PLAYORDER=
